<?xml version="1.0" encoding="utf-8"?>
<!-- Generator: Adobe Illustrator 21.1.0, SVG Export Plug-In . SVG Version: 6.00 Build 0)  -->
<!-- Source:    https://github.com/logos -->
<svg version="1.1" id="octocat" xmlns="http://www.w3.org/2000/svg" xmlns:xlink="http://www.w3.org/1999/xlink" x="0px" y="0px"
	 viewBox="0 0 33.1 33" style="enable-background:new 0 0 33.1 33;" xml:space="preserve">

<path class="st0" d="M16.6,0.3c-9,0-16.3,7.3-16.3,16.3C0.4,23.8,5,29.9,11.5,32c0.8,0.1,1.1-0.4,1.1-0.8c0-0.4,0-1.4,0-2.8
	c-4.5,1-5.5-2.2-5.5-2.2c-0.7-1.9-1.8-2.4-1.8-2.4c-1.5-1,0.1-1,0.1-1C7,23,7.9,24.6,7.9,24.6c1.5,2.5,3.8,1.8,4.7,1.4
	c0.1-1.1,0.6-1.8,1-2.2c-3.6-0.4-7.4-1.8-7.4-8.1c0-1.8,0.6-3.2,1.7-4.4C7.8,10.9,7.2,9.3,8.1,7c0,0,1.4-0.4,4.5,1.7
	c1.3-0.4,2.7-0.5,4.1-0.5c1.4,0,2.8,0.2,4.1,0.5C23.8,6.6,25.2,7,25.2,7c0.9,2.2,0.3,3.9,0.2,4.3c1,1.1,1.7,2.6,1.7,4.4
	c0,6.3-3.8,7.6-7.4,8c0.6,0.5,1.1,1.5,1.1,3c0,2.2,0,3.9,0,4.5c0,0.4,0.3,0.9,1.1,0.8c6.5-2.2,11.1-8.3,11.1-15.5
	C32.9,7.6,25.6,0.3,16.6,0.3z"/>

</svg>
